<svg xmlns="http://www.w3.org/2000/svg" viewBox="0 0 160 160"><rect width="160" height="160" rx="80" fill="#EDE8DC"/><circle cx="80" cy="65" r="29" fill="#5E4034"/><path d="M49 62c3-34 22-45 38-45 22 0 35 16 36 42-11-12-22-18-36-18-15 0-27 7-38 21Z" fill="#171725"/><path d="M30 151c5-39 25-57 50-57s45 18 50 57" fill="#C9A84C"/><path d="M58 92c10 8 34 8 44 0v19c-11 11-33 11-44 0Z" fill="#5E4034"/><circle cx="68" cy="68" r="2.5" fill="#1A1A2E"/><circle cx="92" cy="68" r="2.5" fill="#1A1A2E"/></svg>